<svg width="138" height="21" viewBox="0 0 138 21" fill="none" xmlns="http://www.w3.org/2000/svg">
<path d="M8.84375 2.0625C10.6979 2.0625 11.8958 2.89583 12.4375 4.5625C12.6042 5.10417 12.6875 5.6875 12.6875 6.3125C12.6875 9.02083 11.4792 10.5104 9.0625 10.7812C8.8125 10.8021 8.5625 10.8125 8.3125 10.8125H5.4375V2.0625H8.84375ZM8.5625 20C8.5625 19.5417 8.39583 19.2812 8.0625 19.2188C7.95833 19.1979 7.85417 19.1875 7.75 19.1875H5.4375V11.7188H8.1875C11.6042 11.7188 13.8646 10.75 14.9688 8.8125C15.4062 8.08333 15.625 7.23958 15.625 6.28125C15.625 4.21875 14.7292 2.77083 12.9375 1.9375C11.9792 1.47917 10.8333 1.25 9.5 1.25H0.25V2.0625H2.75V19.1875H0.25V20H8.5625ZM35.7188 20C35.7188 19.5417 35.5521 19.2812 35.2188 19.2188C35.1146 19.1979 35.0104 19.1875 34.9062 19.1875H33.8438L26.6875 1.25H25.5312L18.5312 19.1875H16.5625V20H22.125C22.125 19.5417 21.9583 19.2812 21.625 19.2188C21.5208 19.1979 21.4167 19.1875 21.3125 19.1875H19.7812L22.125 13.125H28.6562L31 19.1875H28.9688V20H35.7188ZM28.3125 12.2188H22.4688L25.375 4.65625L28.3125 12.2188ZM44.625 20V19.1875H42.1562V11.4062H45.125L50.125 20H54.8438C54.8438 19.5417 54.7188 19.2812 54.4688 19.2188C54.3646 19.1979 54.2396 19.1875 54.0938 19.1875H52.9062L47.875 11.125C49.8542 10.6458 51.2083 9.61458 51.9375 8.03125C52.2083 7.40625 52.3438 6.77083 52.3438 6.125C52.3438 4.5625 51.6667 3.3125 50.3125 2.375C49.2083 1.625 47.8438 1.25 46.2188 1.25H36.9688V2.0625H39.4688V19.1875H36.9688V20H44.625ZM45.2812 2.0625C47.0729 2.0625 48.3125 2.79167 49 4.25C49.2708 4.85417 49.4062 5.48958 49.4062 6.15625C49.4062 7.65625 48.8854 8.82292 47.8438 9.65625C47.1354 10.2188 46.3125 10.5 45.375 10.5H42.1562V2.0625H45.2812ZM74 20C74 19.5417 73.8333 19.2812 73.5 19.2188C73.3958 19.1979 73.2917 19.1875 73.1875 19.1875H72.125L64.9688 1.25H63.8125L56.8125 19.1875H54.8438V20H60.4062C60.4062 19.5417 60.2396 19.2812 59.9062 19.2188C59.8021 19.1979 59.6979 19.1875 59.5938 19.1875H58.0625L60.4062 13.125H66.9375L69.2812 19.1875H67.25V20H74ZM66.5938 12.2188H60.75L63.6562 4.65625L66.5938 12.2188ZM75.25 1.25V2.0625H77.75V19.1875H75.25V20H83.875C86.6875 20 89 19.125 90.8125 17.375C92.6042 15.6458 93.5 13.3958 93.5 10.625C93.5 7.04167 92.1875 4.41667 89.5625 2.75C87.9583 1.75 86.0938 1.25 83.9688 1.25H75.25ZM83.875 2.0625C87.1667 2.0625 89.2188 3.5625 90.0312 6.5625C90.3438 7.66667 90.5 8.97917 90.5 10.5C90.5 15.6875 88.7292 18.5521 85.1875 19.0938C84.7917 19.1562 84.3854 19.1875 83.9688 19.1875H80.4375V2.0625H83.875ZM104.125 20C104.125 19.5417 103.958 19.2812 103.625 19.2188C103.521 19.1979 103.417 19.1875 103.312 19.1875H101.656V2.0625H104.125V1.25H96.4688V2.0625H98.9688V19.1875H96.4688V20H104.125ZM120.562 15.0938C120.562 13.2396 119.562 11.75 117.562 10.625C117.167 10.4167 115.948 9.86458 113.906 8.96875C112.052 8.17708 110.885 7.36458 110.406 6.53125C110.156 6.07292 110.031 5.58333 110.031 5.0625C110.031 3.66667 110.708 2.69792 112.062 2.15625C112.646 1.92708 113.292 1.8125 114 1.8125C115.75 1.8125 117.083 2.40625 118 3.59375C118.604 4.40625 118.896 5.39583 118.875 6.5625H119.812V1.09375C119.312 1.09375 119.021 1.25 118.938 1.5625C118.896 1.70833 118.875 1.90625 118.875 2.15625C117.396 1.34375 115.729 0.9375 113.875 0.9375C111.625 0.9375 109.875 1.5625 108.625 2.8125C107.792 3.6875 107.375 4.70833 107.375 5.875C107.375 7.625 108.354 9.05208 110.312 10.1562C110.667 10.3438 111.854 10.875 113.875 11.75C115.75 12.5833 116.938 13.4271 117.438 14.2812C117.708 14.7604 117.844 15.2812 117.844 15.8438C117.844 17.3021 117.135 18.3542 115.719 19C115.052 19.2917 114.312 19.4375 113.5 19.4375C110.312 19.3958 108.542 17.4479 108.188 13.5938H107.25V20.0625C107.75 20.0625 108.042 19.9167 108.125 19.625C108.167 19.4583 108.188 19.1562 108.188 18.7188C109.792 19.7812 111.615 20.3125 113.656 20.3125C116.052 20.3125 117.906 19.6667 119.219 18.375C120.115 17.4583 120.562 16.3646 120.562 15.0938ZM137.938 6.875L137.781 1.25H123.375V2.0625H125.875V19.1875H123.375V20H137.781L137.938 14.375H137.312L136.875 15.8438C136.354 17.6146 135.583 18.6771 134.562 19.0312C134.25 19.1354 133.917 19.1875 133.562 19.1875H128.562V10.7812H135V9.875H128.562V2.0625H133.562C135.062 2.0625 136.135 3.07292 136.781 5.09375C136.823 5.21875 136.854 5.32292 136.875 5.40625L137.312 6.875H137.938Z" fill="white"/>
</svg>
